<svg xmlns="http://www.w3.org/2000/svg" version="1.1" xmlns:xlink="http://www.w3.org/1999/xlink" xmlns:svgjs="http://svgjs.dev/svgjs" width="1000" height="1000"><style>
    #light-icon {
      display: inline;
    }
    #dark-icon {
      display: none;
    }

    @media (prefers-color-scheme: dark) {
      #light-icon {
        display: none;
      }
      #dark-icon {
        display: inline;
      }
    }
  </style><g id="light-icon"><svg xmlns="http://www.w3.org/2000/svg" version="1.1" xmlns:xlink="http://www.w3.org/1999/xlink" xmlns:svgjs="http://svgjs.dev/svgjs" width="1000" height="1000"><g><g transform="matrix(2,0,0,2,0,0)"><svg xmlns="http://www.w3.org/2000/svg" version="1.1" xmlns:xlink="http://www.w3.org/1999/xlink" xmlns:svgjs="http://svgjs.dev/svgjs" width="500" height="500"><svg width="500" height="500" viewBox="0 0 500 500" fill="none" xmlns="http://www.w3.org/2000/svg">
<rect width="500" height="500" rx="120" fill="#F8F9FA"></rect>
<rect x="97" y="98" width="305" height="305" rx="100" fill="#2196F3"></rect>
<path d="M218.052 200.011C234.067 179.635 264.933 179.635 280.948 200.011L317.71 246.782C338.338 273.026 319.642 311.5 286.262 311.5H212.738C179.358 311.5 160.662 273.026 181.29 246.782L218.052 200.011Z" fill="#ADDBFF"></path>
</svg></svg></g></g></svg></g><g id="dark-icon"><svg xmlns="http://www.w3.org/2000/svg" version="1.1" xmlns:xlink="http://www.w3.org/1999/xlink" xmlns:svgjs="http://svgjs.dev/svgjs" width="1000" height="1000"><g><g transform="matrix(2,0,0,2,0,0)"><svg xmlns="http://www.w3.org/2000/svg" version="1.1" xmlns:xlink="http://www.w3.org/1999/xlink" xmlns:svgjs="http://svgjs.dev/svgjs" width="500" height="500"><svg width="500" height="500" viewBox="0 0 500 500" fill="none" xmlns="http://www.w3.org/2000/svg">
<rect width="500" height="500" rx="120" fill="#353535"></rect>
<rect x="97.5" y="98.5" width="304" height="304" rx="99.5" fill="#004B86" stroke="#00599E"></rect>
<path d="M218.052 200.011C234.067 179.635 264.933 179.635 280.948 200.011L317.71 246.782C338.338 273.026 319.642 311.5 286.262 311.5H212.738C179.358 311.5 160.662 273.026 181.29 246.782L218.052 200.011Z" fill="#2196F3"></path>
</svg></svg></g></g></svg></g></svg>